<svg xmlns="http://www.w3.org/2000/svg" xmlns:xlink="http://www.w3.org/1999/xlink" width="2048" zoomAndPan="magnify" viewBox="0 0 1536 1535.999932" height="2048" preserveAspectRatio="xMidYMid meet" version="1.0"><defs><clipPath id="id1"><path d="M 534 8.898438 L 993 8.898438 L 993 467 L 534 467 Z M 534 8.898438 " clip-rule="nonzero"/></clipPath><clipPath id="id2"><path d="M 0 1077 L 459 1077 L 459 1535.898438 L 0 1535.898438 Z M 0 1077 " clip-rule="nonzero"/></clipPath><clipPath id="id3"><path d="M 1068 1077 L 1527 1077 L 1527 1535.898438 L 1068 1535.898438 Z M 1068 1077 " clip-rule="nonzero"/></clipPath></defs><path fill="#bccad1" d="M 308.582031 963.917969 L 613.832031 403.933594 L 658.523438 428.292969 L 353.273438 988.277344 Z M 308.582031 963.917969 " fill-opacity="1" fill-rule="nonzero"/><path fill="#bccad1" d="M 919.511719 530.359375 L 963.800781 505.328125 L 1294.664062 1090.675781 L 1250.375 1115.710938 Z M 919.511719 530.359375 " fill-opacity="1" fill-rule="nonzero"/><path fill="#bccad1" d="M 432.648438 1281.398438 L 992.550781 1281.398438 L 992.550781 1332.296875 L 432.648438 1332.296875 Z M 432.648438 1281.398438 " fill-opacity="1" fill-rule="nonzero"/><g clip-path="url(#id1)"><path fill="#f8f8f8" d="M 992.550781 237.949219 C 992.550781 241.695312 992.457031 245.441406 992.273438 249.1875 C 992.089844 252.929688 991.8125 256.667969 991.445312 260.398438 C 991.078125 264.128906 990.621094 267.847656 990.070312 271.554688 C 989.519531 275.265625 988.878906 278.957031 988.148438 282.632812 C 987.417969 286.308594 986.597656 289.964844 985.683594 293.601562 C 984.773438 297.238281 983.773438 300.851562 982.6875 304.4375 C 981.597656 308.023438 980.421875 311.582031 979.160156 315.113281 C 977.898438 318.640625 976.550781 322.136719 975.113281 325.601562 C 973.679688 329.066406 972.160156 332.492188 970.558594 335.878906 C 968.957031 339.269531 967.269531 342.613281 965.503906 345.921875 C 963.738281 349.226562 961.890625 352.488281 959.960938 355.703125 C 958.035156 358.917969 956.03125 362.085938 953.949219 365.199219 C 951.867188 368.316406 949.707031 371.382812 947.472656 374.394531 C 945.242188 377.402344 942.9375 380.359375 940.558594 383.253906 C 938.179688 386.152344 935.730469 388.992188 933.214844 391.769531 C 930.699219 394.546875 928.113281 397.261719 925.460938 399.910156 C 922.8125 402.5625 920.097656 405.144531 917.320312 407.664062 C 914.542969 410.179688 911.707031 412.628906 908.808594 415.003906 C 905.910156 417.382812 902.957031 419.6875 899.945312 421.921875 C 896.933594 424.15625 893.871094 426.3125 890.753906 428.394531 C 887.636719 430.476562 884.46875 432.484375 881.253906 434.410156 C 878.039062 436.335938 874.78125 438.183594 871.472656 439.953125 C 868.167969 441.71875 864.820312 443.402344 861.429688 445.007812 C 858.042969 446.609375 854.617188 448.128906 851.152344 449.5625 C 847.691406 450.996094 844.195312 452.34375 840.664062 453.609375 C 837.136719 454.871094 833.578125 456.046875 829.988281 457.136719 C 826.402344 458.222656 822.789062 459.222656 819.15625 460.132812 C 815.519531 461.042969 811.863281 461.863281 808.183594 462.597656 C 804.507812 463.328125 800.816406 463.96875 797.109375 464.519531 C 793.402344 465.070312 789.679688 465.527344 785.949219 465.894531 C 782.21875 466.261719 778.484375 466.539062 774.738281 466.722656 C 770.996094 466.90625 767.25 466.996094 763.5 466.996094 C 759.75 466.996094 756.003906 466.90625 752.261719 466.722656 C 748.515625 466.539062 744.78125 466.261719 741.050781 465.894531 C 737.320312 465.527344 733.597656 465.070312 729.890625 464.519531 C 726.183594 463.96875 722.492188 463.328125 718.816406 462.597656 C 715.136719 461.863281 711.480469 461.042969 707.84375 460.132812 C 704.210938 459.222656 700.597656 458.222656 697.011719 457.136719 C 693.421875 456.046875 689.863281 454.871094 686.335938 453.609375 C 682.804688 452.34375 679.308594 450.996094 675.847656 449.5625 C 672.382812 448.128906 668.957031 446.609375 665.570312 445.007812 C 662.179688 443.402344 658.832031 441.71875 655.527344 439.953125 C 652.21875 438.183594 648.960938 436.335938 645.746094 434.410156 C 642.53125 432.484375 639.363281 430.476562 636.246094 428.394531 C 633.128906 426.3125 630.066406 424.15625 627.054688 421.921875 C 624.042969 419.6875 621.089844 417.382812 618.191406 415.003906 C 615.292969 412.628906 612.457031 410.179688 609.679688 407.664062 C 606.902344 405.144531 604.1875 402.5625 601.539062 399.910156 C 598.886719 397.261719 596.300781 394.546875 593.785156 391.769531 C 591.269531 388.992188 588.820312 386.152344 586.441406 383.253906 C 584.0625 380.359375 581.757812 377.402344 579.523438 374.394531 C 577.292969 371.382812 575.132812 368.316406 573.050781 365.199219 C 570.96875 362.085938 568.964844 358.917969 567.039062 355.703125 C 565.109375 352.488281 563.261719 349.226562 561.496094 345.921875 C 559.730469 342.613281 558.042969 339.269531 556.441406 335.878906 C 554.839844 332.492188 553.320312 329.066406 551.886719 325.601562 C 550.449219 322.136719 549.101562 318.640625 547.839844 315.113281 C 546.578125 311.582031 545.402344 308.023438 544.3125 304.4375 C 543.226562 300.851562 542.226562 297.238281 541.3125 293.601562 C 540.402344 289.964844 539.582031 286.308594 538.851562 282.632812 C 538.121094 278.957031 537.480469 275.265625 536.929688 271.554688 C 536.378906 267.847656 535.921875 264.128906 535.554688 260.398438 C 535.183594 256.667969 534.910156 252.929688 534.726562 249.1875 C 534.542969 245.441406 534.449219 241.695312 534.449219 237.949219 C 534.449219 234.199219 534.542969 230.453125 534.726562 226.707031 C 534.910156 222.964844 535.183594 219.226562 535.554688 215.496094 C 535.921875 211.765625 536.378906 208.046875 536.929688 204.339844 C 537.480469 200.632812 538.121094 196.9375 538.851562 193.261719 C 539.582031 189.585938 540.402344 185.929688 541.3125 182.292969 C 542.226562 178.65625 543.226562 175.046875 544.3125 171.457031 C 545.402344 167.871094 546.578125 164.3125 547.839844 160.78125 C 549.101562 157.253906 550.449219 153.757812 551.886719 150.292969 C 553.320312 146.832031 554.839844 143.40625 556.441406 140.015625 C 558.042969 136.628906 559.730469 133.28125 561.496094 129.972656 C 563.261719 126.667969 565.109375 123.40625 567.039062 120.191406 C 568.964844 116.976562 570.96875 113.8125 573.050781 110.695312 C 575.132812 107.578125 577.292969 104.515625 579.523438 101.503906 C 581.757812 98.492188 584.0625 95.539062 586.441406 92.640625 C 588.820312 89.742188 591.269531 86.90625 593.785156 84.128906 C 596.300781 81.351562 598.886719 78.636719 601.539062 75.984375 C 604.1875 73.335938 606.902344 70.75 609.679688 68.234375 C 612.457031 65.714844 615.292969 63.269531 618.191406 60.890625 C 621.089844 58.511719 624.042969 56.207031 627.054688 53.972656 C 630.066406 51.738281 633.128906 49.582031 636.246094 47.5 C 639.363281 45.417969 642.53125 43.414062 645.746094 41.484375 C 648.960938 39.558594 652.21875 37.710938 655.527344 35.945312 C 658.832031 34.175781 662.179688 32.492188 665.570312 30.890625 C 668.957031 29.285156 672.382812 27.769531 675.847656 26.332031 C 679.308594 24.898438 682.804688 23.550781 686.335938 22.285156 C 689.863281 21.023438 693.421875 19.847656 697.011719 18.761719 C 700.597656 17.671875 704.210938 16.671875 707.84375 15.761719 C 711.480469 14.851562 715.136719 14.03125 718.816406 13.300781 C 722.492188 12.566406 726.183594 11.925781 729.890625 11.375 C 733.597656 10.828125 737.320312 10.367188 741.050781 10 C 744.78125 9.632812 748.515625 9.359375 752.261719 9.171875 C 756.003906 8.988281 759.75 8.898438 763.5 8.898438 C 767.25 8.898438 770.996094 8.988281 774.738281 9.171875 C 778.484375 9.359375 782.21875 9.632812 785.949219 10 C 789.679688 10.367188 793.402344 10.828125 797.109375 11.375 C 800.816406 11.925781 804.507812 12.566406 808.183594 13.300781 C 811.863281 14.03125 815.519531 14.851562 819.15625 15.761719 C 822.789062 16.671875 826.402344 17.671875 829.988281 18.761719 C 833.578125 19.847656 837.136719 21.023438 840.664062 22.285156 C 844.195312 23.550781 847.691406 24.898438 851.152344 26.332031 C 854.617188 27.769531 858.042969 29.285156 861.429688 30.890625 C 864.820312 32.492188 868.167969 34.175781 871.472656 35.945312 C 874.78125 37.710938 878.039062 39.558594 881.253906 41.484375 C 884.46875 43.414062 887.636719 45.417969 890.753906 47.5 C 893.871094 49.582031 896.933594 51.738281 899.945312 53.972656 C 902.957031 56.207031 905.910156 58.511719 908.808594 60.890625 C 911.707031 63.269531 914.542969 65.714844 917.320312 68.234375 C 920.097656 70.75 922.8125 73.335938 925.460938 75.984375 C 928.113281 78.636719 930.699219 81.351562 933.214844 84.128906 C 935.730469 86.90625 938.179688 89.742188 940.558594 92.640625 C 942.9375 95.539062 945.242188 98.492188 947.472656 101.503906 C 949.707031 104.515625 951.867188 107.578125 953.949219 110.695312 C 956.03125 113.8125 958.035156 116.976562 959.960938 120.191406 C 961.890625 123.40625 963.738281 126.667969 965.503906 129.972656 C 967.269531 133.28125 968.957031 136.628906 970.558594 140.015625 C 972.160156 143.40625 973.679688 146.832031 975.113281 150.292969 C 976.550781 153.757812 977.898438 157.253906 979.160156 160.78125 C 980.421875 164.3125 981.597656 167.871094 982.6875 171.457031 C 983.773438 175.046875 984.773438 178.65625 985.683594 182.292969 C 986.597656 185.929688 987.417969 189.585938 988.148438 193.261719 C 988.878906 196.9375 989.519531 200.632812 990.070312 204.339844 C 990.621094 208.046875 991.078125 211.765625 991.445312 215.496094 C 991.8125 219.226562 992.089844 222.964844 992.273438 226.707031 C 992.457031 230.453125 992.550781 234.199219 992.550781 237.949219 Z M 992.550781 237.949219 " fill-opacity="1" fill-rule="nonzero"/></g><g clip-path="url(#id2)"><path fill="#f8f8f8" d="M 458.101562 1306.847656 C 458.101562 1310.597656 458.007812 1314.34375 457.824219 1318.085938 C 457.640625 1321.832031 457.363281 1325.566406 456.996094 1329.296875 C 456.628906 1333.027344 456.171875 1336.75 455.621094 1340.457031 C 455.070312 1344.164062 454.429688 1347.855469 453.699219 1351.53125 C 452.96875 1355.210938 452.144531 1358.867188 451.234375 1362.503906 C 450.324219 1366.136719 449.324219 1369.75 448.238281 1373.335938 C 447.148438 1376.925781 445.972656 1380.484375 444.710938 1384.011719 C 443.449219 1387.542969 442.097656 1391.039062 440.664062 1394.5 C 439.230469 1397.964844 437.710938 1401.390625 436.109375 1404.777344 C 434.507812 1408.167969 432.820312 1411.515625 431.054688 1414.820312 C 429.285156 1418.128906 427.441406 1421.386719 425.511719 1424.601562 C 423.585938 1427.816406 421.582031 1430.984375 419.5 1434.101562 C 417.414062 1437.21875 415.257812 1440.28125 413.023438 1443.292969 C 410.792969 1446.304688 408.484375 1449.257812 406.109375 1452.15625 C 403.730469 1455.054688 401.28125 1457.890625 398.765625 1460.667969 C 396.246094 1463.445312 393.664062 1466.160156 391.011719 1468.808594 C 388.363281 1471.460938 385.648438 1474.046875 382.871094 1476.5625 C 380.09375 1479.078125 377.253906 1481.527344 374.359375 1483.90625 C 371.460938 1486.285156 368.503906 1488.589844 365.496094 1490.820312 C 362.484375 1493.054688 359.421875 1495.214844 356.304688 1497.296875 C 353.1875 1499.378906 350.019531 1501.382812 346.804688 1503.308594 C 343.589844 1505.238281 340.328125 1507.085938 337.023438 1508.851562 C 333.71875 1510.617188 330.371094 1512.304688 326.980469 1513.90625 C 323.59375 1515.507812 320.167969 1517.027344 316.703125 1518.460938 C 313.242188 1519.898438 309.742188 1521.246094 306.214844 1522.507812 C 302.683594 1523.769531 299.125 1524.945312 295.539062 1526.035156 C 291.953125 1527.121094 288.339844 1528.121094 284.703125 1529.035156 C 281.070312 1529.945312 277.410156 1530.765625 273.734375 1531.496094 C 270.058594 1532.226562 266.367188 1532.867188 262.660156 1533.417969 C 258.949219 1533.96875 255.230469 1534.425781 251.5 1534.792969 C 247.769531 1535.164062 244.03125 1535.4375 240.289062 1535.621094 C 236.542969 1535.804688 232.796875 1535.898438 229.050781 1535.898438 C 225.300781 1535.898438 221.554688 1535.804688 217.8125 1535.621094 C 214.066406 1535.4375 210.328125 1535.164062 206.597656 1534.792969 C 202.867188 1534.425781 199.148438 1533.96875 195.441406 1533.417969 C 191.734375 1532.867188 188.042969 1532.226562 184.363281 1531.496094 C 180.6875 1530.765625 177.03125 1529.945312 173.394531 1529.035156 C 169.757812 1528.121094 166.148438 1527.121094 162.558594 1526.035156 C 158.972656 1524.945312 155.414062 1523.769531 151.886719 1522.507812 C 148.355469 1521.246094 144.859375 1519.898438 141.394531 1518.460938 C 137.933594 1517.027344 134.507812 1515.507812 131.117188 1513.90625 C 127.730469 1512.304688 124.382812 1510.617188 121.078125 1508.851562 C 117.769531 1507.085938 114.511719 1505.238281 111.292969 1503.308594 C 108.078125 1501.382812 104.914062 1499.378906 101.796875 1497.296875 C 98.679688 1495.214844 95.617188 1493.054688 92.605469 1490.820312 C 89.59375 1488.589844 86.640625 1486.285156 83.742188 1483.90625 C 80.84375 1481.527344 78.007812 1479.078125 75.230469 1476.5625 C 72.453125 1474.046875 69.738281 1471.460938 67.085938 1468.808594 C 64.4375 1466.160156 61.851562 1463.445312 59.335938 1460.667969 C 56.816406 1457.890625 54.371094 1455.054688 51.992188 1452.15625 C 49.613281 1449.257812 47.308594 1446.304688 45.074219 1443.292969 C 42.84375 1440.28125 40.683594 1437.21875 38.601562 1434.101562 C 36.519531 1430.984375 34.515625 1427.816406 32.585938 1424.601562 C 30.660156 1421.386719 28.8125 1418.128906 27.046875 1414.820312 C 25.277344 1411.515625 23.59375 1408.167969 21.992188 1404.777344 C 20.386719 1401.390625 18.871094 1397.964844 17.433594 1394.5 C 16 1391.039062 14.652344 1387.542969 13.390625 1384.011719 C 12.125 1380.484375 10.949219 1376.925781 9.863281 1373.335938 C 8.773438 1369.75 7.773438 1366.136719 6.863281 1362.503906 C 5.953125 1358.867188 5.132812 1355.210938 4.402344 1351.53125 C 3.667969 1347.855469 3.027344 1344.164062 2.480469 1340.457031 C 1.929688 1336.75 1.46875 1333.027344 1.101562 1329.296875 C 0.734375 1325.566406 0.460938 1321.832031 0.277344 1318.085938 C 0.09375 1314.34375 0 1310.597656 0 1306.847656 C 0 1303.097656 0.09375 1299.351562 0.277344 1295.609375 C 0.460938 1291.863281 0.734375 1288.128906 1.101562 1284.398438 C 1.46875 1280.667969 1.929688 1276.945312 2.480469 1273.238281 C 3.027344 1269.53125 3.667969 1265.839844 4.402344 1262.164062 C 5.132812 1258.484375 5.953125 1254.828125 6.863281 1251.191406 C 7.773438 1247.558594 8.773438 1243.945312 9.863281 1240.359375 C 10.949219 1236.769531 12.125 1233.210938 13.390625 1229.683594 C 14.652344 1226.152344 16 1222.65625 17.433594 1219.195312 C 18.871094 1215.730469 20.386719 1212.304688 21.992188 1208.917969 C 23.59375 1205.527344 25.277344 1202.179688 27.046875 1198.875 C 28.8125 1195.566406 30.660156 1192.308594 32.585938 1189.09375 C 34.515625 1185.878906 36.519531 1182.710938 38.601562 1179.59375 C 40.683594 1176.476562 42.84375 1173.414062 45.074219 1170.402344 C 47.308594 1167.390625 49.613281 1164.4375 51.992188 1161.539062 C 54.371094 1158.640625 56.816406 1155.804688 59.335938 1153.027344 C 61.851562 1150.25 64.4375 1147.535156 67.085938 1144.886719 C 69.738281 1142.234375 72.453125 1139.648438 75.230469 1137.132812 C 78.007812 1134.617188 80.84375 1132.167969 83.742188 1129.789062 C 86.640625 1127.410156 89.59375 1125.105469 92.605469 1122.871094 C 95.617188 1120.640625 98.679688 1118.480469 101.796875 1116.398438 C 104.914062 1114.316406 108.078125 1112.3125 111.292969 1110.386719 C 114.511719 1108.457031 117.769531 1106.609375 121.078125 1104.84375 C 124.382812 1103.078125 127.730469 1101.390625 131.117188 1099.789062 C 134.507812 1098.1875 137.933594 1096.667969 141.394531 1095.234375 C 144.859375 1093.796875 148.355469 1092.449219 151.886719 1091.1875 C 155.414062 1089.925781 158.972656 1088.75 162.558594 1087.660156 C 166.148438 1086.570312 169.757812 1085.574219 173.394531 1084.660156 C 177.03125 1083.75 180.6875 1082.929688 184.363281 1082.199219 C 188.042969 1081.46875 191.734375 1080.828125 195.441406 1080.277344 C 199.148438 1079.726562 202.867188 1079.269531 206.597656 1078.902344 C 210.328125 1078.535156 214.066406 1078.257812 217.8125 1078.074219 C 221.554688 1077.890625 225.300781 1077.796875 229.050781 1077.796875 C 232.796875 1077.796875 236.542969 1077.890625 240.289062 1078.074219 C 244.03125 1078.257812 247.769531 1078.535156 251.5 1078.902344 C 255.230469 1079.269531 258.949219 1079.726562 262.660156 1080.277344 C 266.367188 1080.828125 270.058594 1081.46875 273.734375 1082.199219 C 277.410156 1082.929688 281.070312 1083.75 284.703125 1084.660156 C 288.339844 1085.574219 291.953125 1086.570312 295.539062 1087.660156 C 299.125 1088.75 302.683594 1089.925781 306.214844 1091.1875 C 309.742188 1092.449219 313.242188 1093.796875 316.703125 1095.234375 C 320.167969 1096.667969 323.59375 1098.1875 326.980469 1099.789062 C 330.371094 1101.390625 333.71875 1103.078125 337.023438 1104.84375 C 340.328125 1106.609375 343.589844 1108.457031 346.804688 1110.386719 C 350.019531 1112.3125 353.1875 1114.316406 356.304688 1116.398438 C 359.421875 1118.480469 362.484375 1120.640625 365.496094 1122.871094 C 368.503906 1125.105469 371.460938 1127.410156 374.359375 1129.789062 C 377.253906 1132.167969 380.09375 1134.617188 382.871094 1137.132812 C 385.648438 1139.648438 388.363281 1142.234375 391.011719 1144.886719 C 393.664062 1147.535156 396.246094 1150.25 398.765625 1153.027344 C 401.28125 1155.804688 403.730469 1158.640625 406.109375 1161.539062 C 408.484375 1164.4375 410.792969 1167.390625 413.023438 1170.402344 C 415.257812 1173.414062 417.414062 1176.476562 419.5 1179.59375 C 421.582031 1182.710938 423.585938 1185.878906 425.511719 1189.09375 C 427.441406 1192.308594 429.285156 1195.566406 431.054688 1198.875 C 432.820312 1202.179688 434.507812 1205.527344 436.109375 1208.917969 C 437.710938 1212.304688 439.230469 1215.730469 440.664062 1219.195312 C 442.097656 1222.65625 443.449219 1226.152344 444.710938 1229.683594 C 445.972656 1233.210938 447.148438 1236.769531 448.238281 1240.359375 C 449.324219 1243.945312 450.324219 1247.558594 451.234375 1251.191406 C 452.144531 1254.828125 452.96875 1258.484375 453.699219 1262.164062 C 454.429688 1265.839844 455.070312 1269.53125 455.621094 1273.238281 C 456.171875 1276.945312 456.628906 1280.667969 456.996094 1284.398438 C 457.363281 1288.128906 457.640625 1291.863281 457.824219 1295.609375 C 458.007812 1299.351562 458.101562 1303.097656 458.101562 1306.847656 Z M 458.101562 1306.847656 " fill-opacity="1" fill-rule="nonzero"/></g><g clip-path="url(#id3)"><path fill="#f8f8f8" d="M 1527 1306.847656 C 1527 1310.597656 1526.90625 1314.34375 1526.722656 1318.085938 C 1526.539062 1321.832031 1526.265625 1325.566406 1525.898438 1329.296875 C 1525.53125 1333.027344 1525.070312 1336.75 1524.519531 1340.457031 C 1523.972656 1344.164062 1523.332031 1347.855469 1522.597656 1351.53125 C 1521.867188 1355.210938 1521.046875 1358.867188 1520.136719 1362.503906 C 1519.226562 1366.136719 1518.226562 1369.75 1517.136719 1373.335938 C 1516.050781 1376.925781 1514.875 1380.484375 1513.609375 1384.011719 C 1512.347656 1387.542969 1511 1391.039062 1509.566406 1394.5 C 1508.128906 1397.964844 1506.613281 1401.390625 1505.007812 1404.777344 C 1503.40625 1408.167969 1501.722656 1411.515625 1499.953125 1414.820312 C 1498.1875 1418.128906 1496.339844 1421.386719 1494.414062 1424.601562 C 1492.484375 1427.816406 1490.480469 1430.984375 1488.398438 1434.101562 C 1486.316406 1437.21875 1484.15625 1440.28125 1481.925781 1443.292969 C 1479.691406 1446.304688 1477.386719 1449.257812 1475.007812 1452.15625 C 1472.628906 1455.054688 1470.183594 1457.890625 1467.664062 1460.667969 C 1465.148438 1463.445312 1462.5625 1466.160156 1459.914062 1468.808594 C 1457.261719 1471.460938 1454.546875 1474.046875 1451.769531 1476.5625 C 1448.992188 1479.078125 1446.15625 1481.527344 1443.257812 1483.90625 C 1440.359375 1486.285156 1437.40625 1488.589844 1434.394531 1490.820312 C 1431.382812 1493.054688 1428.320312 1495.214844 1425.203125 1497.296875 C 1422.085938 1499.378906 1418.921875 1501.382812 1415.707031 1503.308594 C 1412.488281 1505.238281 1409.230469 1507.085938 1405.921875 1508.851562 C 1402.617188 1510.617188 1399.269531 1512.304688 1395.882812 1513.90625 C 1392.492188 1515.507812 1389.066406 1517.027344 1385.601562 1518.460938 C 1382.140625 1519.898438 1378.644531 1521.246094 1375.113281 1522.507812 C 1371.585938 1523.769531 1368.027344 1524.945312 1364.441406 1526.035156 C 1360.851562 1527.121094 1357.242188 1528.121094 1353.605469 1529.035156 C 1349.96875 1529.945312 1346.3125 1530.765625 1342.636719 1531.496094 C 1338.957031 1532.226562 1335.265625 1532.867188 1331.558594 1533.417969 C 1327.851562 1533.96875 1324.132812 1534.425781 1320.402344 1534.792969 C 1316.671875 1535.164062 1312.933594 1535.4375 1309.1875 1535.621094 C 1305.445312 1535.804688 1301.699219 1535.898438 1297.949219 1535.898438 C 1294.203125 1535.898438 1290.457031 1535.804688 1286.710938 1535.621094 C 1282.96875 1535.4375 1279.230469 1535.164062 1275.5 1534.792969 C 1271.769531 1534.425781 1268.050781 1533.96875 1264.339844 1533.417969 C 1260.632812 1532.867188 1256.941406 1532.226562 1253.265625 1531.496094 C 1249.589844 1530.765625 1245.933594 1529.945312 1242.296875 1529.035156 C 1238.660156 1528.121094 1235.046875 1527.121094 1231.460938 1526.035156 C 1227.875 1524.945312 1224.316406 1523.769531 1220.785156 1522.507812 C 1217.257812 1521.246094 1213.757812 1519.898438 1210.296875 1518.460938 C 1206.832031 1517.027344 1203.40625 1515.507812 1200.019531 1513.90625 C 1196.628906 1512.304688 1193.28125 1510.617188 1189.976562 1508.851562 C 1186.671875 1507.085938 1183.410156 1505.238281 1180.195312 1503.308594 C 1176.980469 1501.382812 1173.8125 1499.378906 1170.695312 1497.296875 C 1167.578125 1495.214844 1164.515625 1493.054688 1161.503906 1490.820312 C 1158.496094 1488.589844 1155.539062 1486.285156 1152.640625 1483.90625 C 1149.746094 1481.527344 1146.90625 1479.078125 1144.128906 1476.5625 C 1141.351562 1474.046875 1138.636719 1471.460938 1135.988281 1468.808594 C 1133.335938 1466.160156 1130.753906 1463.445312 1128.234375 1460.667969 C 1125.71875 1457.890625 1123.269531 1455.054688 1120.890625 1452.15625 C 1118.515625 1449.257812 1116.207031 1446.304688 1113.976562 1443.292969 C 1111.742188 1440.28125 1109.585938 1437.21875 1107.5 1434.101562 C 1105.417969 1430.984375 1103.414062 1427.816406 1101.488281 1424.601562 C 1099.558594 1421.386719 1097.714844 1418.128906 1095.945312 1414.820312 C 1094.179688 1411.515625 1092.492188 1408.167969 1090.890625 1404.777344 C 1089.289062 1401.390625 1087.769531 1397.964844 1086.335938 1394.5 C 1084.902344 1391.039062 1083.550781 1387.542969 1082.289062 1384.011719 C 1081.027344 1380.484375 1079.851562 1376.925781 1078.761719 1373.335938 C 1077.675781 1369.75 1076.675781 1366.136719 1075.765625 1362.503906 C 1074.851562 1358.867188 1074.03125 1355.210938 1073.300781 1351.53125 C 1072.570312 1347.855469 1071.929688 1344.164062 1071.378906 1340.457031 C 1070.828125 1336.75 1070.371094 1333.027344 1070.003906 1329.296875 C 1069.636719 1325.566406 1069.359375 1321.832031 1069.175781 1318.085938 C 1068.992188 1314.34375 1068.898438 1310.597656 1068.898438 1306.847656 C 1068.898438 1303.097656 1068.992188 1299.351562 1069.175781 1295.609375 C 1069.359375 1291.863281 1069.636719 1288.128906 1070.003906 1284.398438 C 1070.371094 1280.667969 1070.828125 1276.945312 1071.378906 1273.238281 C 1071.929688 1269.53125 1072.570312 1265.839844 1073.300781 1262.164062 C 1074.03125 1258.484375 1074.851562 1254.828125 1075.765625 1251.191406 C 1076.675781 1247.558594 1077.675781 1243.945312 1078.761719 1240.359375 C 1079.851562 1236.769531 1081.027344 1233.210938 1082.289062 1229.683594 C 1083.550781 1226.152344 1084.902344 1222.65625 1086.335938 1219.195312 C 1087.769531 1215.730469 1089.289062 1212.304688 1090.890625 1208.917969 C 1092.492188 1205.527344 1094.179688 1202.179688 1095.945312 1198.875 C 1097.714844 1195.566406 1099.558594 1192.308594 1101.488281 1189.09375 C 1103.414062 1185.878906 1105.417969 1182.710938 1107.5 1179.59375 C 1109.585938 1176.476562 1111.742188 1173.414062 1113.976562 1170.402344 C 1116.207031 1167.390625 1118.515625 1164.4375 1120.890625 1161.539062 C 1123.269531 1158.640625 1125.71875 1155.804688 1128.234375 1153.027344 C 1130.753906 1150.25 1133.335938 1147.535156 1135.988281 1144.886719 C 1138.636719 1142.234375 1141.351562 1139.648438 1144.128906 1137.132812 C 1146.90625 1134.617188 1149.746094 1132.167969 1152.640625 1129.789062 C 1155.539062 1127.410156 1158.492188 1125.105469 1161.503906 1122.871094 C 1164.515625 1120.640625 1167.578125 1118.480469 1170.695312 1116.398438 C 1173.8125 1114.316406 1176.980469 1112.3125 1180.195312 1110.386719 C 1183.410156 1108.457031 1186.671875 1106.609375 1189.976562 1104.84375 C 1193.28125 1103.078125 1196.628906 1101.390625 1200.019531 1099.789062 C 1203.40625 1098.1875 1206.832031 1096.667969 1210.296875 1095.234375 C 1213.757812 1093.796875 1217.257812 1092.449219 1220.785156 1091.1875 C 1224.316406 1089.925781 1227.875 1088.75 1231.460938 1087.660156 C 1235.046875 1086.570312 1238.660156 1085.574219 1242.296875 1084.660156 C 1245.933594 1083.75 1249.589844 1082.929688 1253.265625 1082.199219 C 1256.941406 1081.46875 1260.632812 1080.828125 1264.339844 1080.277344 C 1268.050781 1079.726562 1271.769531 1079.269531 1275.5 1078.902344 C 1279.230469 1078.535156 1282.96875 1078.257812 1286.710938 1078.074219 C 1290.457031 1077.890625 1294.203125 1077.796875 1297.949219 1077.796875 C 1301.699219 1077.796875 1305.445312 1077.890625 1309.1875 1078.074219 C 1312.933594 1078.257812 1316.671875 1078.535156 1320.402344 1078.902344 C 1324.132812 1079.269531 1327.851562 1079.726562 1331.558594 1080.277344 C 1335.265625 1080.828125 1338.957031 1081.46875 1342.636719 1082.199219 C 1346.3125 1082.929688 1349.96875 1083.75 1353.605469 1084.660156 C 1357.242188 1085.574219 1360.851562 1086.570312 1364.441406 1087.660156 C 1368.027344 1088.75 1371.585938 1089.925781 1375.113281 1091.1875 C 1378.644531 1092.449219 1382.140625 1093.796875 1385.601562 1095.234375 C 1389.066406 1096.667969 1392.492188 1098.1875 1395.882812 1099.789062 C 1399.269531 1101.390625 1402.617188 1103.078125 1405.921875 1104.84375 C 1409.230469 1106.609375 1412.488281 1108.457031 1415.707031 1110.386719 C 1418.921875 1112.3125 1422.085938 1114.316406 1425.203125 1116.398438 C 1428.320312 1118.480469 1431.382812 1120.640625 1434.394531 1122.871094 C 1437.40625 1125.105469 1440.359375 1127.410156 1443.257812 1129.789062 C 1446.15625 1132.167969 1448.992188 1134.617188 1451.769531 1137.132812 C 1454.546875 1139.648438 1457.261719 1142.234375 1459.914062 1144.886719 C 1462.5625 1147.535156 1465.148438 1150.25 1467.664062 1153.027344 C 1470.183594 1155.804688 1472.628906 1158.640625 1475.007812 1161.539062 C 1477.386719 1164.4375 1479.691406 1167.390625 1481.925781 1170.402344 C 1484.15625 1173.414062 1486.316406 1176.476562 1488.398438 1179.59375 C 1490.480469 1182.710938 1492.484375 1185.878906 1494.414062 1189.09375 C 1496.339844 1192.308594 1498.1875 1195.566406 1499.953125 1198.875 C 1501.722656 1202.179688 1503.40625 1205.527344 1505.007812 1208.917969 C 1506.613281 1212.304688 1508.128906 1215.730469 1509.566406 1219.195312 C 1511 1222.65625 1512.347656 1226.152344 1513.609375 1229.683594 C 1514.875 1233.210938 1516.050781 1236.769531 1517.136719 1240.359375 C 1518.226562 1243.945312 1519.226562 1247.558594 1520.136719 1251.191406 C 1521.046875 1254.828125 1521.867188 1258.484375 1522.597656 1262.164062 C 1523.332031 1265.839844 1523.972656 1269.53125 1524.519531 1273.238281 C 1525.070312 1276.945312 1525.53125 1280.667969 1525.898438 1284.398438 C 1526.265625 1288.128906 1526.539062 1291.863281 1526.722656 1295.609375 C 1526.90625 1299.351562 1527 1303.097656 1527 1306.847656 Z M 1527 1306.847656 " fill-opacity="1" fill-rule="nonzero"/></g><path fill="#ffffff" d="M 203.601562 1255.949219 C 203.601562 1257.613281 203.519531 1259.277344 203.355469 1260.9375 C 203.191406 1262.597656 202.945312 1264.242188 202.621094 1265.878906 C 202.296875 1267.511719 201.890625 1269.128906 201.410156 1270.722656 C 200.925781 1272.316406 200.363281 1273.886719 199.726562 1275.425781 C 199.085938 1276.964844 198.375 1278.472656 197.589844 1279.941406 C 196.804688 1281.410156 195.949219 1282.839844 195.023438 1284.226562 C 194.09375 1285.613281 193.105469 1286.949219 192.046875 1288.238281 C 190.988281 1289.527344 189.871094 1290.761719 188.691406 1291.9375 C 187.511719 1293.117188 186.277344 1294.234375 184.992188 1295.292969 C 183.703125 1296.351562 182.363281 1297.34375 180.980469 1298.269531 C 179.59375 1299.195312 178.164062 1300.050781 176.695312 1300.835938 C 175.222656 1301.625 173.71875 1302.335938 172.179688 1302.972656 C 170.636719 1303.609375 169.070312 1304.171875 167.476562 1304.65625 C 165.878906 1305.140625 164.265625 1305.542969 162.628906 1305.871094 C 160.996094 1306.195312 159.347656 1306.4375 157.6875 1306.601562 C 156.03125 1306.765625 154.367188 1306.847656 152.699219 1306.847656 C 151.03125 1306.847656 149.371094 1306.765625 147.710938 1306.601562 C 146.050781 1306.4375 144.40625 1306.195312 142.769531 1305.871094 C 141.136719 1305.542969 139.519531 1305.140625 137.925781 1304.65625 C 136.328125 1304.171875 134.761719 1303.609375 133.222656 1302.972656 C 131.679688 1302.335938 130.175781 1301.625 128.707031 1300.835938 C 127.234375 1300.050781 125.808594 1299.195312 124.421875 1298.269531 C 123.035156 1297.34375 121.699219 1296.351562 120.410156 1295.292969 C 119.121094 1294.234375 117.886719 1293.117188 116.707031 1291.9375 C 115.53125 1290.761719 114.410156 1289.527344 113.355469 1288.238281 C 112.296875 1286.949219 111.304688 1285.613281 110.378906 1284.226562 C 109.453125 1282.839844 108.597656 1281.410156 107.808594 1279.941406 C 107.023438 1278.472656 106.3125 1276.964844 105.675781 1275.425781 C 105.035156 1273.886719 104.476562 1272.316406 103.992188 1270.722656 C 103.507812 1269.128906 103.101562 1267.511719 102.777344 1265.878906 C 102.453125 1264.242188 102.207031 1262.597656 102.046875 1260.9375 C 101.882812 1259.277344 101.800781 1257.613281 101.800781 1255.949219 C 101.800781 1254.28125 101.882812 1252.617188 102.046875 1250.957031 C 102.207031 1249.300781 102.453125 1247.652344 102.777344 1246.015625 C 103.101562 1244.382812 103.507812 1242.765625 103.992188 1241.171875 C 104.476562 1239.578125 105.035156 1238.007812 105.675781 1236.46875 C 106.3125 1234.929688 107.023438 1233.421875 107.808594 1231.953125 C 108.597656 1230.484375 109.453125 1229.054688 110.378906 1227.667969 C 111.304688 1226.28125 112.296875 1224.945312 113.355469 1223.65625 C 114.410156 1222.367188 115.53125 1221.132812 116.707031 1219.957031 C 117.886719 1218.777344 119.121094 1217.660156 120.410156 1216.601562 C 121.699219 1215.542969 123.035156 1214.550781 124.421875 1213.625 C 125.808594 1212.699219 127.234375 1211.84375 128.707031 1211.058594 C 130.175781 1210.273438 131.679688 1209.558594 133.222656 1208.921875 C 134.761719 1208.285156 136.328125 1207.722656 137.925781 1207.238281 C 139.519531 1206.753906 141.136719 1206.351562 142.769531 1206.027344 C 144.40625 1205.699219 146.050781 1205.457031 147.710938 1205.292969 C 149.371094 1205.128906 151.03125 1205.046875 152.699219 1205.046875 C 154.367188 1205.046875 156.03125 1205.128906 157.6875 1205.292969 C 159.347656 1205.457031 160.996094 1205.699219 162.628906 1206.027344 C 164.265625 1206.351562 165.878906 1206.753906 167.476562 1207.238281 C 169.070312 1207.722656 170.636719 1208.285156 172.179688 1208.921875 C 173.71875 1209.558594 175.222656 1210.273438 176.695312 1211.058594 C 178.164062 1211.84375 179.59375 1212.699219 180.980469 1213.625 C 182.363281 1214.550781 183.703125 1215.542969 184.992188 1216.601562 C 186.277344 1217.660156 187.511719 1218.777344 188.691406 1219.957031 C 189.871094 1221.132812 190.988281 1222.367188 192.046875 1223.65625 C 193.105469 1224.945312 194.09375 1226.28125 195.023438 1227.667969 C 195.949219 1229.054688 196.804688 1230.484375 197.589844 1231.953125 C 198.375 1233.421875 199.085938 1234.929688 199.726562 1236.46875 C 200.363281 1238.007812 200.925781 1239.578125 201.410156 1241.171875 C 201.890625 1242.765625 202.296875 1244.382812 202.621094 1246.015625 C 202.945312 1247.652344 203.191406 1249.300781 203.355469 1250.957031 C 203.519531 1252.617188 203.601562 1254.28125 203.601562 1255.949219 Z M 203.601562 1255.949219 " fill-opacity="1" fill-rule="nonzero"/><path fill="#ffffff" d="M 763.5 161.597656 C 763.5 163.265625 763.417969 164.929688 763.253906 166.585938 C 763.089844 168.246094 762.847656 169.894531 762.523438 171.527344 C 762.195312 173.164062 761.792969 174.777344 761.308594 176.375 C 760.824219 177.96875 760.261719 179.535156 759.625 181.078125 C 758.988281 182.617188 758.277344 184.121094 757.488281 185.59375 C 756.703125 187.0625 755.847656 188.488281 754.921875 189.875 C 753.996094 191.261719 753.003906 192.601562 751.945312 193.886719 C 750.890625 195.175781 749.769531 196.410156 748.589844 197.589844 C 747.414062 198.769531 746.179688 199.886719 744.890625 200.945312 C 743.601562 202 742.265625 202.992188 740.878906 203.917969 C 739.492188 204.84375 738.0625 205.703125 736.59375 206.488281 C 735.125 207.273438 733.617188 207.984375 732.078125 208.625 C 730.539062 209.261719 728.972656 209.820312 727.375 210.304688 C 725.78125 210.789062 724.164062 211.195312 722.53125 211.519531 C 720.894531 211.84375 719.25 212.089844 717.589844 212.253906 C 715.929688 212.417969 714.265625 212.496094 712.601562 212.496094 C 710.933594 212.496094 709.269531 212.417969 707.609375 212.253906 C 705.953125 212.089844 704.304688 211.84375 702.667969 211.519531 C 701.035156 211.195312 699.417969 210.789062 697.824219 210.304688 C 696.230469 209.820312 694.660156 209.261719 693.121094 208.625 C 691.582031 207.984375 690.074219 207.273438 688.605469 206.488281 C 687.136719 205.703125 685.707031 204.84375 684.320312 203.917969 C 682.933594 202.992188 681.597656 202 680.308594 200.945312 C 679.019531 199.886719 677.785156 198.769531 676.609375 197.589844 C 675.429688 196.410156 674.3125 195.175781 673.253906 193.886719 C 672.195312 192.601562 671.203125 191.261719 670.277344 189.875 C 669.351562 188.488281 668.496094 187.0625 667.710938 185.59375 C 666.925781 184.121094 666.210938 182.617188 665.574219 181.078125 C 664.9375 179.535156 664.375 177.96875 663.890625 176.375 C 663.40625 174.777344 663.003906 173.164062 662.679688 171.527344 C 662.351562 169.894531 662.109375 168.246094 661.945312 166.585938 C 661.78125 164.929688 661.699219 163.265625 661.699219 161.597656 C 661.699219 159.929688 661.78125 158.269531 661.945312 156.609375 C 662.109375 154.949219 662.351562 153.300781 662.679688 151.667969 C 663.003906 150.03125 663.40625 148.417969 663.890625 146.820312 C 664.375 145.226562 664.9375 143.660156 665.574219 142.117188 C 666.210938 140.578125 666.925781 139.074219 667.710938 137.605469 C 668.496094 136.132812 669.351562 134.707031 670.277344 133.320312 C 671.203125 131.933594 672.195312 130.597656 673.253906 129.308594 C 674.3125 128.019531 675.429688 126.785156 676.609375 125.605469 C 677.785156 124.425781 679.019531 123.308594 680.308594 122.25 C 681.597656 121.195312 682.933594 120.203125 684.320312 119.277344 C 685.707031 118.351562 687.136719 117.492188 688.605469 116.707031 C 690.074219 115.921875 691.582031 115.210938 693.121094 114.570312 C 694.660156 113.933594 696.230469 113.375 697.824219 112.890625 C 699.417969 112.40625 701.035156 112 702.667969 111.675781 C 704.304688 111.351562 705.953125 111.105469 707.609375 110.941406 C 709.269531 110.78125 710.933594 110.699219 712.601562 110.699219 C 714.265625 110.699219 715.929688 110.78125 717.589844 110.941406 C 719.25 111.105469 720.894531 111.351562 722.53125 111.675781 C 724.164062 112 725.78125 112.40625 727.375 112.890625 C 728.972656 113.375 730.539062 113.933594 732.078125 114.570312 C 733.617188 115.210938 735.125 115.921875 736.59375 116.707031 C 738.0625 117.492188 739.492188 118.351562 740.878906 119.277344 C 742.265625 120.203125 743.601562 121.195312 744.890625 122.25 C 746.179688 123.308594 747.414062 124.425781 748.589844 125.605469 C 749.769531 126.785156 750.890625 128.019531 751.945312 129.308594 C 753.003906 130.597656 753.996094 131.933594 754.921875 133.320312 C 755.847656 134.707031 756.703125 136.132812 757.488281 137.605469 C 758.277344 139.074219 758.988281 140.578125 759.625 142.117188 C 760.261719 143.660156 760.824219 145.226562 761.308594 146.820312 C 761.792969 148.417969 762.195312 150.03125 762.523438 151.667969 C 762.847656 153.300781 763.089844 154.949219 763.253906 156.609375 C 763.417969 158.269531 763.5 159.929688 763.5 161.597656 Z M 763.5 161.597656 " fill-opacity="1" fill-rule="nonzero"/><path fill="#ffffff" d="M 1425.199219 1255.949219 C 1425.199219 1257.613281 1425.117188 1259.277344 1424.953125 1260.9375 C 1424.792969 1262.597656 1424.546875 1264.242188 1424.222656 1265.878906 C 1423.898438 1267.511719 1423.492188 1269.128906 1423.007812 1270.722656 C 1422.523438 1272.316406 1421.964844 1273.886719 1421.324219 1275.425781 C 1420.6875 1276.964844 1419.976562 1278.472656 1419.191406 1279.941406 C 1418.402344 1281.410156 1417.546875 1282.839844 1416.621094 1284.226562 C 1415.695312 1285.613281 1414.703125 1286.949219 1413.644531 1288.238281 C 1412.589844 1289.527344 1411.46875 1290.761719 1410.292969 1291.9375 C 1409.113281 1293.117188 1407.878906 1294.234375 1406.589844 1295.292969 C 1405.300781 1296.351562 1403.964844 1297.34375 1402.578125 1298.269531 C 1401.191406 1299.195312 1399.765625 1300.050781 1398.292969 1300.835938 C 1396.824219 1301.625 1395.320312 1302.335938 1393.777344 1302.972656 C 1392.238281 1303.609375 1390.671875 1304.171875 1389.074219 1304.65625 C 1387.480469 1305.140625 1385.863281 1305.542969 1384.230469 1305.871094 C 1382.59375 1306.195312 1380.949219 1306.4375 1379.289062 1306.601562 C 1377.628906 1306.765625 1375.96875 1306.847656 1374.300781 1306.847656 C 1372.632812 1306.847656 1370.96875 1306.765625 1369.3125 1306.601562 C 1367.652344 1306.4375 1366.003906 1306.195312 1364.371094 1305.871094 C 1362.734375 1305.542969 1361.121094 1305.140625 1359.523438 1304.65625 C 1357.929688 1304.171875 1356.359375 1303.609375 1354.820312 1302.972656 C 1353.28125 1302.335938 1351.777344 1301.625 1350.304688 1300.835938 C 1348.835938 1300.050781 1347.40625 1299.195312 1346.019531 1298.269531 C 1344.636719 1297.34375 1343.296875 1296.351562 1342.007812 1295.292969 C 1340.71875 1294.234375 1339.488281 1293.117188 1338.308594 1291.9375 C 1337.128906 1290.761719 1336.011719 1289.527344 1334.953125 1288.238281 C 1333.894531 1286.949219 1332.902344 1285.613281 1331.976562 1284.226562 C 1331.050781 1282.839844 1330.195312 1281.410156 1329.410156 1279.941406 C 1328.625 1278.472656 1327.914062 1276.964844 1327.273438 1275.425781 C 1326.636719 1273.886719 1326.074219 1272.316406 1325.589844 1270.722656 C 1325.109375 1269.128906 1324.703125 1267.511719 1324.378906 1265.878906 C 1324.050781 1264.242188 1323.808594 1262.597656 1323.644531 1260.9375 C 1323.480469 1259.277344 1323.398438 1257.613281 1323.398438 1255.949219 C 1323.398438 1254.28125 1323.480469 1252.617188 1323.644531 1250.957031 C 1323.808594 1249.300781 1324.054688 1247.652344 1324.378906 1246.015625 C 1324.703125 1244.382812 1325.109375 1242.765625 1325.589844 1241.171875 C 1326.074219 1239.578125 1326.636719 1238.007812 1327.273438 1236.46875 C 1327.914062 1234.929688 1328.625 1233.421875 1329.410156 1231.953125 C 1330.195312 1230.484375 1331.050781 1229.054688 1331.976562 1227.667969 C 1332.902344 1226.28125 1333.894531 1224.945312 1334.953125 1223.65625 C 1336.011719 1222.367188 1337.128906 1221.132812 1338.308594 1219.957031 C 1339.488281 1218.777344 1340.71875 1217.660156 1342.007812 1216.601562 C 1343.296875 1215.542969 1344.636719 1214.550781 1346.019531 1213.625 C 1347.40625 1212.699219 1348.835938 1211.84375 1350.304688 1211.058594 C 1351.777344 1210.273438 1353.28125 1209.558594 1354.820312 1208.921875 C 1356.359375 1208.285156 1357.929688 1207.722656 1359.523438 1207.238281 C 1361.121094 1206.753906 1362.734375 1206.351562 1364.371094 1206.027344 C 1366.003906 1205.699219 1367.652344 1205.457031 1369.3125 1205.292969 C 1370.96875 1205.128906 1372.632812 1205.046875 1374.300781 1205.046875 C 1375.96875 1205.046875 1377.628906 1205.128906 1379.289062 1205.292969 C 1380.949219 1205.457031 1382.59375 1205.699219 1384.230469 1206.027344 C 1385.863281 1206.351562 1387.480469 1206.753906 1389.074219 1207.238281 C 1390.671875 1207.722656 1392.238281 1208.285156 1393.777344 1208.921875 C 1395.320312 1209.558594 1396.824219 1210.273438 1398.292969 1211.058594 C 1399.765625 1211.84375 1401.191406 1212.699219 1402.578125 1213.625 C 1403.964844 1214.550781 1405.300781 1215.542969 1406.589844 1216.601562 C 1407.878906 1217.660156 1409.113281 1218.777344 1410.292969 1219.957031 C 1411.46875 1221.132812 1412.589844 1222.367188 1413.644531 1223.65625 C 1414.703125 1224.945312 1415.695312 1226.28125 1416.621094 1227.667969 C 1417.546875 1229.054688 1418.402344 1230.484375 1419.191406 1231.953125 C 1419.976562 1233.421875 1420.6875 1234.929688 1421.324219 1236.46875 C 1421.964844 1238.007812 1422.523438 1239.578125 1423.007812 1241.171875 C 1423.492188 1242.765625 1423.898438 1244.382812 1424.222656 1246.015625 C 1424.546875 1247.652344 1424.792969 1249.300781 1424.953125 1250.957031 C 1425.117188 1252.617188 1425.199219 1254.28125 1425.199219 1255.949219 Z M 1425.199219 1255.949219 " fill-opacity="1" fill-rule="nonzero"/><path fill="#f8f8f8" d="M 814.398438 1077.796875 C 814.398438 1079.464844 814.320312 1081.128906 814.15625 1082.785156 C 813.992188 1084.445312 813.746094 1086.09375 813.421875 1087.726562 C 813.097656 1089.363281 812.691406 1090.976562 812.207031 1092.574219 C 811.722656 1094.167969 811.164062 1095.734375 810.523438 1097.277344 C 809.886719 1098.816406 809.175781 1100.320312 808.390625 1101.792969 C 807.605469 1103.261719 806.746094 1104.691406 805.820312 1106.074219 C 804.894531 1107.460938 803.902344 1108.800781 802.847656 1110.089844 C 801.789062 1111.378906 800.671875 1112.609375 799.492188 1113.789062 C 798.3125 1114.96875 797.078125 1116.085938 795.789062 1117.144531 C 794.5 1118.203125 793.164062 1119.191406 791.777344 1120.121094 C 790.390625 1121.046875 788.964844 1121.902344 787.492188 1122.6875 C 786.023438 1123.472656 784.519531 1124.183594 782.976562 1124.824219 C 781.4375 1125.460938 779.871094 1126.023438 778.277344 1126.507812 C 776.679688 1126.988281 775.066406 1127.394531 773.429688 1127.71875 C 771.796875 1128.042969 770.148438 1128.289062 768.488281 1128.453125 C 766.832031 1128.617188 765.167969 1128.699219 763.5 1128.699219 C 761.832031 1128.699219 760.171875 1128.617188 758.511719 1128.453125 C 756.851562 1128.289062 755.203125 1128.042969 753.570312 1127.71875 C 751.933594 1127.394531 750.320312 1126.988281 748.722656 1126.503906 C 747.128906 1126.023438 745.5625 1125.460938 744.019531 1124.824219 C 742.480469 1124.183594 740.976562 1123.472656 739.507812 1122.6875 C 738.035156 1121.902344 736.609375 1121.046875 735.222656 1120.121094 C 733.835938 1119.191406 732.5 1118.203125 731.210938 1117.144531 C 729.921875 1116.085938 728.6875 1114.96875 727.507812 1113.789062 C 726.328125 1112.609375 725.210938 1111.378906 724.152344 1110.089844 C 723.097656 1108.800781 722.105469 1107.460938 721.179688 1106.074219 C 720.253906 1104.691406 719.394531 1103.261719 718.609375 1101.792969 C 717.824219 1100.320312 717.113281 1098.816406 716.472656 1097.277344 C 715.835938 1095.734375 715.277344 1094.167969 714.792969 1092.574219 C 714.308594 1090.976562 713.902344 1089.363281 713.578125 1087.726562 C 713.253906 1086.09375 713.007812 1084.445312 712.84375 1082.785156 C 712.683594 1081.128906 712.601562 1079.464844 712.601562 1077.796875 C 712.601562 1076.128906 712.683594 1074.46875 712.84375 1072.808594 C 713.007812 1071.148438 713.253906 1069.503906 713.578125 1067.867188 C 713.902344 1066.234375 714.308594 1064.617188 714.792969 1063.023438 C 715.277344 1061.425781 715.835938 1059.859375 716.472656 1058.320312 C 717.113281 1056.777344 717.824219 1055.273438 718.609375 1053.804688 C 719.394531 1052.332031 720.253906 1050.90625 721.179688 1049.519531 C 722.105469 1048.132812 723.097656 1046.796875 724.152344 1045.507812 C 725.210938 1044.21875 726.328125 1042.984375 727.507812 1041.804688 C 728.6875 1040.628906 729.921875 1039.507812 731.210938 1038.453125 C 732.5 1037.394531 733.835938 1036.402344 735.222656 1035.476562 C 736.609375 1034.550781 738.035156 1033.695312 739.507812 1032.90625 C 740.976562 1032.121094 742.480469 1031.410156 744.019531 1030.773438 C 745.5625 1030.132812 747.128906 1029.574219 748.722656 1029.089844 C 750.320312 1028.605469 751.933594 1028.199219 753.570312 1027.875 C 755.203125 1027.550781 756.851562 1027.304688 758.511719 1027.144531 C 760.171875 1026.980469 761.832031 1026.898438 763.5 1026.898438 C 765.167969 1026.898438 766.832031 1026.980469 768.488281 1027.144531 C 770.148438 1027.304688 771.796875 1027.550781 773.429688 1027.875 C 775.066406 1028.199219 776.679688 1028.605469 778.277344 1029.089844 C 779.871094 1029.574219 781.4375 1030.132812 782.980469 1030.773438 C 784.519531 1031.410156 786.023438 1032.121094 787.492188 1032.90625 C 788.964844 1033.695312 790.390625 1034.550781 791.777344 1035.476562 C 793.164062 1036.402344 794.5 1037.394531 795.789062 1038.453125 C 797.078125 1039.507812 798.3125 1040.628906 799.492188 1041.804688 C 800.671875 1042.984375 801.789062 1044.21875 802.847656 1045.507812 C 803.902344 1046.796875 804.894531 1048.132812 805.820312 1049.519531 C 806.746094 1050.90625 807.605469 1052.332031 808.390625 1053.804688 C 809.175781 1055.273438 809.886719 1056.777344 810.523438 1058.320312 C 811.164062 1059.859375 811.722656 1061.425781 812.207031 1063.023438 C 812.691406 1064.617188 813.097656 1066.234375 813.421875 1067.867188 C 813.746094 1069.503906 813.992188 1071.148438 814.15625 1072.808594 C 814.320312 1074.46875 814.398438 1076.128906 814.398438 1077.796875 Z M 814.398438 1077.796875 " fill-opacity="1" fill-rule="nonzero"/><path fill="#f8f8f8" d="M 814.398438 899.648438 C 814.398438 901.316406 814.320312 902.976562 814.15625 904.636719 C 813.992188 906.296875 813.746094 907.941406 813.421875 909.578125 C 813.097656 911.210938 812.691406 912.828125 812.207031 914.421875 C 811.722656 916.019531 811.164062 917.585938 810.523438 919.125 C 809.886719 920.667969 809.175781 922.171875 808.390625 923.640625 C 807.605469 925.113281 806.746094 926.539062 805.820312 927.925781 C 804.894531 929.3125 803.902344 930.648438 802.847656 931.9375 C 801.789062 933.226562 800.671875 934.460938 799.492188 935.640625 C 798.3125 936.816406 797.078125 937.9375 795.789062 938.992188 C 794.5 940.050781 793.164062 941.042969 791.777344 941.96875 C 790.390625 942.894531 788.964844 943.75 787.492188 944.539062 C 786.023438 945.324219 784.519531 946.035156 782.976562 946.671875 C 781.4375 947.3125 779.871094 947.871094 778.277344 948.355469 C 776.679688 948.839844 775.066406 949.246094 773.429688 949.570312 C 771.796875 949.894531 770.148438 950.140625 768.488281 950.300781 C 766.832031 950.464844 765.167969 950.546875 763.5 950.546875 C 761.832031 950.546875 760.171875 950.464844 758.511719 950.300781 C 756.851562 950.140625 755.203125 949.894531 753.570312 949.570312 C 751.933594 949.246094 750.320312 948.839844 748.722656 948.355469 C 747.128906 947.871094 745.5625 947.3125 744.019531 946.671875 C 742.480469 946.035156 740.976562 945.324219 739.507812 944.539062 C 738.035156 943.75 736.609375 942.894531 735.222656 941.96875 C 733.835938 941.042969 732.5 940.050781 731.210938 938.992188 C 729.921875 937.9375 728.6875 936.816406 727.507812 935.640625 C 726.328125 934.460938 725.210938 933.226562 724.152344 931.9375 C 723.097656 930.648438 722.105469 929.3125 721.179688 927.925781 C 720.253906 926.539062 719.394531 925.113281 718.609375 923.640625 C 717.824219 922.171875 717.113281 920.667969 716.472656 919.125 C 715.835938 917.585938 715.277344 916.019531 714.792969 914.421875 C 714.308594 912.828125 713.902344 911.210938 713.578125 909.578125 C 713.253906 907.941406 713.007812 906.296875 712.84375 904.636719 C 712.683594 902.976562 712.601562 901.316406 712.601562 899.648438 C 712.601562 897.980469 712.683594 896.316406 712.84375 894.660156 C 713.007812 893 713.253906 891.351562 713.578125 889.71875 C 713.902344 888.082031 714.308594 886.46875 714.792969 884.871094 C 715.277344 883.277344 715.835938 881.710938 716.472656 880.167969 C 717.113281 878.628906 717.824219 877.125 718.609375 875.652344 C 719.394531 874.183594 720.253906 872.753906 721.179688 871.367188 C 722.105469 869.984375 723.097656 868.644531 724.152344 867.355469 C 725.210938 866.070312 726.328125 864.835938 727.507812 863.65625 C 728.6875 862.476562 729.921875 861.359375 731.210938 860.300781 C 732.5 859.242188 733.835938 858.253906 735.222656 857.324219 C 736.609375 856.398438 738.035156 855.542969 739.507812 854.757812 C 740.976562 853.972656 742.480469 853.261719 744.019531 852.621094 C 745.5625 851.984375 747.128906 851.421875 748.722656 850.9375 C 750.320312 850.457031 751.933594 850.050781 753.570312 849.726562 C 755.203125 849.402344 756.851562 849.15625 758.511719 848.992188 C 760.171875 848.828125 761.832031 848.746094 763.5 848.746094 C 765.167969 848.746094 766.832031 848.828125 768.488281 848.992188 C 770.148438 849.15625 771.796875 849.402344 773.429688 849.726562 C 775.066406 850.050781 776.679688 850.457031 778.277344 850.9375 C 779.871094 851.421875 781.4375 851.984375 782.980469 852.621094 C 784.519531 853.261719 786.023438 853.972656 787.492188 854.757812 C 788.964844 855.542969 790.390625 856.398438 791.777344 857.324219 C 793.164062 858.253906 794.5 859.242188 795.789062 860.300781 C 797.078125 861.359375 798.3125 862.476562 799.492188 863.65625 C 800.671875 864.835938 801.789062 866.070312 802.847656 867.355469 C 803.902344 868.644531 804.894531 869.984375 805.820312 871.367188 C 806.746094 872.753906 807.605469 874.183594 808.390625 875.652344 C 809.175781 877.125 809.886719 878.628906 810.523438 880.167969 C 811.164062 881.710938 811.722656 883.277344 812.207031 884.871094 C 812.691406 886.46875 813.097656 888.082031 813.421875 889.71875 C 813.746094 891.351562 813.992188 893 814.15625 894.660156 C 814.320312 896.316406 814.398438 897.980469 814.398438 899.648438 Z M 814.398438 899.648438 " fill-opacity="1" fill-rule="nonzero"/><path fill="#f8f8f8" d="M 814.398438 721.496094 C 814.398438 723.164062 814.320312 724.828125 814.15625 726.488281 C 813.992188 728.144531 813.746094 729.792969 813.421875 731.429688 C 813.097656 733.0625 812.691406 734.679688 812.207031 736.273438 C 811.722656 737.867188 811.164062 739.4375 810.523438 740.976562 C 809.886719 742.515625 809.175781 744.023438 808.390625 745.492188 C 807.605469 746.960938 806.746094 748.390625 805.820312 749.777344 C 804.894531 751.164062 803.902344 752.5 802.847656 753.789062 C 801.789062 755.078125 800.671875 756.3125 799.492188 757.488281 C 798.3125 758.667969 797.078125 759.785156 795.789062 760.84375 C 794.5 761.902344 793.164062 762.894531 791.777344 763.820312 C 790.390625 764.746094 788.964844 765.601562 787.492188 766.386719 C 786.023438 767.171875 784.519531 767.886719 782.976562 768.523438 C 781.4375 769.160156 779.871094 769.722656 778.277344 770.207031 C 776.679688 770.691406 775.066406 771.09375 773.429688 771.417969 C 771.796875 771.746094 770.148438 771.988281 768.488281 772.152344 C 766.832031 772.316406 765.167969 772.398438 763.5 772.398438 C 761.832031 772.398438 760.171875 772.316406 758.511719 772.152344 C 756.851562 771.988281 755.203125 771.746094 753.570312 771.417969 C 751.933594 771.09375 750.320312 770.691406 748.722656 770.207031 C 747.128906 769.722656 745.5625 769.160156 744.019531 768.523438 C 742.480469 767.886719 740.976562 767.171875 739.507812 766.386719 C 738.035156 765.601562 736.609375 764.746094 735.222656 763.820312 C 733.835938 762.894531 732.5 761.902344 731.210938 760.84375 C 729.921875 759.785156 728.6875 758.667969 727.507812 757.488281 C 726.328125 756.3125 725.210938 755.078125 724.152344 753.789062 C 723.097656 752.5 722.105469 751.164062 721.179688 749.777344 C 720.253906 748.390625 719.394531 746.960938 718.609375 745.492188 C 717.824219 744.023438 717.113281 742.515625 716.472656 740.976562 C 715.835938 739.4375 715.277344 737.867188 714.792969 736.273438 C 714.308594 734.679688 713.902344 733.0625 713.578125 731.429688 C 713.253906 729.792969 713.007812 728.144531 712.84375 726.488281 C 712.683594 724.828125 712.601562 723.164062 712.601562 721.496094 C 712.601562 719.832031 712.683594 718.167969 712.84375 716.507812 C 713.007812 714.851562 713.253906 713.203125 713.578125 711.566406 C 713.902344 709.933594 714.308594 708.316406 714.792969 706.722656 C 715.277344 705.125 715.835938 703.558594 716.472656 702.019531 C 717.113281 700.480469 717.824219 698.972656 718.609375 697.503906 C 719.394531 696.035156 720.253906 694.605469 721.179688 693.21875 C 722.105469 691.832031 723.097656 690.496094 724.152344 689.207031 C 725.210938 687.917969 726.328125 686.683594 727.507812 685.507812 C 728.6875 684.328125 729.921875 683.207031 731.210938 682.152344 C 732.5 681.09375 733.835938 680.101562 735.222656 679.175781 C 736.609375 678.25 738.035156 677.394531 739.507812 676.609375 C 740.976562 675.820312 742.480469 675.109375 744.019531 674.472656 C 745.5625 673.835938 747.128906 673.273438 748.722656 672.789062 C 750.320312 672.304688 751.933594 671.902344 753.570312 671.574219 C 755.203125 671.25 756.851562 671.007812 758.511719 670.84375 C 760.171875 670.679688 761.832031 670.597656 763.5 670.597656 C 765.167969 670.597656 766.832031 670.679688 768.488281 670.84375 C 770.148438 671.007812 771.796875 671.25 773.429688 671.574219 C 775.066406 671.902344 776.679688 672.304688 778.277344 672.789062 C 779.871094 673.273438 781.4375 673.835938 782.980469 674.472656 C 784.519531 675.109375 786.023438 675.820312 787.492188 676.609375 C 788.964844 677.394531 790.390625 678.25 791.777344 679.175781 C 793.164062 680.101562 794.5 681.09375 795.789062 682.152344 C 797.078125 683.207031 798.3125 684.328125 799.492188 685.507812 C 800.671875 686.683594 801.789062 687.917969 802.847656 689.207031 C 803.902344 690.496094 804.894531 691.832031 805.820312 693.21875 C 806.746094 694.605469 807.605469 696.035156 808.390625 697.503906 C 809.175781 698.972656 809.886719 700.480469 810.523438 702.019531 C 811.164062 703.558594 811.722656 705.125 812.207031 706.722656 C 812.691406 708.316406 813.097656 709.933594 813.421875 711.566406 C 813.746094 713.203125 813.992188 714.851562 814.15625 716.507812 C 814.320312 718.167969 814.398438 719.832031 814.398438 721.496094 Z M 814.398438 721.496094 " fill-opacity="1" fill-rule="nonzero"/><path fill="#f8f8f8" d="M 661.699219 1001.449219 C 661.699219 1003.113281 661.617188 1004.777344 661.453125 1006.4375 C 661.292969 1008.097656 661.046875 1009.742188 660.722656 1011.378906 C 660.398438 1013.011719 659.992188 1014.628906 659.507812 1016.222656 C 659.023438 1017.820312 658.464844 1019.386719 657.824219 1020.925781 C 657.1875 1022.464844 656.476562 1023.972656 655.691406 1025.441406 C 654.902344 1026.910156 654.046875 1028.339844 653.121094 1029.726562 C 652.195312 1031.113281 651.203125 1032.449219 650.144531 1033.738281 C 649.089844 1035.027344 647.96875 1036.261719 646.792969 1037.4375 C 645.613281 1038.617188 644.378906 1039.738281 643.089844 1040.792969 C 641.800781 1041.851562 640.464844 1042.84375 639.078125 1043.769531 C 637.691406 1044.695312 636.265625 1045.550781 634.792969 1046.335938 C 633.324219 1047.125 631.820312 1047.835938 630.277344 1048.472656 C 628.738281 1049.109375 627.171875 1049.671875 625.574219 1050.15625 C 623.980469 1050.640625 622.363281 1051.042969 620.730469 1051.371094 C 619.09375 1051.695312 617.449219 1051.9375 615.789062 1052.101562 C 614.128906 1052.265625 612.46875 1052.347656 610.800781 1052.347656 C 609.132812 1052.347656 607.46875 1052.265625 605.8125 1052.101562 C 604.152344 1051.9375 602.503906 1051.695312 600.871094 1051.371094 C 599.234375 1051.042969 597.621094 1050.640625 596.023438 1050.15625 C 594.429688 1049.671875 592.863281 1049.109375 591.320312 1048.472656 C 589.78125 1047.835938 588.277344 1047.125 586.804688 1046.335938 C 585.335938 1045.550781 583.90625 1044.695312 582.519531 1043.769531 C 581.136719 1042.84375 579.796875 1041.851562 578.507812 1040.792969 C 577.222656 1039.738281 575.988281 1038.617188 574.808594 1037.4375 C 573.628906 1036.261719 572.511719 1035.027344 571.453125 1033.738281 C 570.394531 1032.449219 569.402344 1031.113281 568.476562 1029.726562 C 567.550781 1028.339844 566.695312 1026.910156 565.910156 1025.441406 C 565.125 1023.972656 564.414062 1022.464844 563.773438 1020.925781 C 563.136719 1019.386719 562.574219 1017.820312 562.089844 1016.222656 C 561.609375 1014.628906 561.203125 1013.011719 560.878906 1011.378906 C 560.554688 1009.742188 560.308594 1008.097656 560.144531 1006.4375 C 559.980469 1004.777344 559.898438 1003.113281 559.898438 1001.449219 C 559.898438 999.78125 559.980469 998.117188 560.144531 996.457031 C 560.308594 994.800781 560.554688 993.152344 560.878906 991.515625 C 561.203125 989.882812 561.609375 988.265625 562.089844 986.671875 C 562.574219 985.078125 563.136719 983.507812 563.773438 981.96875 C 564.414062 980.429688 565.125 978.921875 565.910156 977.453125 C 566.695312 975.984375 567.550781 974.554688 568.476562 973.167969 C 569.402344 971.78125 570.394531 970.445312 571.453125 969.15625 C 572.511719 967.867188 573.628906 966.632812 574.808594 965.457031 C 575.988281 964.277344 577.222656 963.160156 578.507812 962.101562 C 579.796875 961.042969 581.136719 960.050781 582.519531 959.125 C 583.90625 958.199219 585.335938 957.34375 586.804688 956.558594 C 588.277344 955.773438 589.78125 955.058594 591.320312 954.421875 C 592.863281 953.785156 594.429688 953.222656 596.023438 952.738281 C 597.621094 952.253906 599.234375 951.851562 600.871094 951.527344 C 602.503906 951.199219 604.152344 950.957031 605.8125 950.792969 C 607.46875 950.628906 609.132812 950.546875 610.800781 950.546875 C 612.46875 950.546875 614.128906 950.628906 615.789062 950.792969 C 617.449219 950.957031 619.09375 951.199219 620.730469 951.527344 C 622.363281 951.851562 623.980469 952.253906 625.574219 952.738281 C 627.171875 953.222656 628.738281 953.785156 630.277344 954.421875 C 631.820312 955.058594 633.324219 955.773438 634.792969 956.558594 C 636.265625 957.34375 637.691406 958.199219 639.078125 959.125 C 640.464844 960.050781 641.800781 961.042969 643.089844 962.101562 C 644.378906 963.160156 645.613281 964.277344 646.792969 965.457031 C 647.96875 966.632812 649.089844 967.867188 650.144531 969.15625 C 651.203125 970.445312 652.195312 971.78125 653.121094 973.167969 C 654.046875 974.554688 654.902344 975.984375 655.691406 977.453125 C 656.476562 978.921875 657.1875 980.429688 657.824219 981.96875 C 658.464844 983.507812 659.023438 985.078125 659.507812 986.671875 C 659.992188 988.265625 660.398438 989.882812 660.722656 991.515625 C 661.046875 993.152344 661.292969 994.800781 661.453125 996.457031 C 661.617188 998.117188 661.699219 999.78125 661.699219 1001.449219 Z M 661.699219 1001.449219 " fill-opacity="1" fill-rule="nonzero"/><path fill="#f8f8f8" d="M 967.101562 1001.449219 C 967.101562 1003.113281 967.019531 1004.777344 966.855469 1006.4375 C 966.691406 1008.097656 966.445312 1009.742188 966.121094 1011.378906 C 965.796875 1013.011719 965.390625 1014.628906 964.910156 1016.222656 C 964.425781 1017.820312 963.863281 1019.386719 963.226562 1020.925781 C 962.585938 1022.464844 961.875 1023.972656 961.089844 1025.441406 C 960.304688 1026.910156 959.449219 1028.339844 958.523438 1029.726562 C 957.59375 1031.113281 956.605469 1032.449219 955.546875 1033.738281 C 954.488281 1035.027344 953.371094 1036.261719 952.191406 1037.4375 C 951.011719 1038.617188 949.777344 1039.738281 948.492188 1040.792969 C 947.203125 1041.851562 945.863281 1042.84375 944.476562 1043.769531 C 943.09375 1044.695312 941.664062 1045.550781 940.195312 1046.335938 C 938.722656 1047.125 937.21875 1047.835938 935.679688 1048.472656 C 934.136719 1049.109375 932.570312 1049.671875 930.976562 1050.15625 C 929.378906 1050.640625 927.765625 1051.042969 926.128906 1051.371094 C 924.496094 1051.695312 922.847656 1051.9375 921.1875 1052.101562 C 919.53125 1052.265625 917.867188 1052.347656 916.199219 1052.347656 C 914.53125 1052.347656 912.871094 1052.265625 911.210938 1052.101562 C 909.550781 1051.9375 907.90625 1051.695312 906.269531 1051.371094 C 904.636719 1051.042969 903.019531 1050.640625 901.425781 1050.15625 C 899.828125 1049.671875 898.261719 1049.109375 896.722656 1048.472656 C 895.179688 1047.835938 893.675781 1047.125 892.207031 1046.335938 C 890.734375 1045.550781 889.308594 1044.695312 887.921875 1043.769531 C 886.535156 1042.84375 885.199219 1041.851562 883.910156 1040.792969 C 882.621094 1039.738281 881.386719 1038.617188 880.207031 1037.4375 C 879.03125 1036.261719 877.910156 1035.027344 876.855469 1033.738281 C 875.796875 1032.449219 874.804688 1031.113281 873.878906 1029.726562 C 872.953125 1028.339844 872.097656 1026.910156 871.308594 1025.441406 C 870.523438 1023.972656 869.8125 1022.464844 869.175781 1020.925781 C 868.535156 1019.386719 867.976562 1017.820312 867.492188 1016.222656 C 867.007812 1014.628906 866.601562 1013.011719 866.277344 1011.378906 C 865.953125 1009.742188 865.707031 1008.097656 865.546875 1006.4375 C 865.382812 1004.777344 865.300781 1003.113281 865.300781 1001.449219 C 865.300781 999.78125 865.382812 998.117188 865.546875 996.457031 C 865.707031 994.800781 865.953125 993.152344 866.277344 991.515625 C 866.601562 989.882812 867.007812 988.265625 867.492188 986.671875 C 867.976562 985.078125 868.535156 983.507812 869.175781 981.96875 C 869.8125 980.429688 870.523438 978.921875 871.308594 977.453125 C 872.097656 975.984375 872.953125 974.554688 873.878906 973.167969 C 874.804688 971.78125 875.796875 970.445312 876.855469 969.15625 C 877.910156 967.867188 879.03125 966.632812 880.207031 965.457031 C 881.386719 964.277344 882.621094 963.160156 883.910156 962.101562 C 885.199219 961.042969 886.535156 960.050781 887.921875 959.125 C 889.308594 958.199219 890.734375 957.34375 892.207031 956.558594 C 893.675781 955.773438 895.179688 955.058594 896.722656 954.421875 C 898.261719 953.785156 899.828125 953.222656 901.425781 952.738281 C 903.019531 952.253906 904.636719 951.851562 906.269531 951.527344 C 907.90625 951.199219 909.550781 950.957031 911.210938 950.792969 C 912.871094 950.628906 914.53125 950.546875 916.199219 950.546875 C 917.867188 950.546875 919.53125 950.628906 921.1875 950.792969 C 922.847656 950.957031 924.496094 951.199219 926.128906 951.527344 C 927.765625 951.851562 929.378906 952.253906 930.976562 952.738281 C 932.570312 953.222656 934.136719 953.785156 935.679688 954.421875 C 937.21875 955.058594 938.722656 955.773438 940.195312 956.558594 C 941.664062 957.34375 943.09375 958.199219 944.476562 959.125 C 945.863281 960.050781 947.203125 961.042969 948.492188 962.101562 C 949.777344 963.160156 951.011719 964.277344 952.191406 965.457031 C 953.371094 966.632812 954.488281 967.867188 955.546875 969.15625 C 956.605469 970.445312 957.59375 971.78125 958.523438 973.167969 C 959.449219 974.554688 960.304688 975.984375 961.089844 977.453125 C 961.875 978.921875 962.585938 980.429688 963.226562 981.96875 C 963.863281 983.507812 964.425781 985.078125 964.910156 986.671875 C 965.390625 988.265625 965.796875 989.882812 966.121094 991.515625 C 966.445312 993.152344 966.691406 994.800781 966.855469 996.457031 C 967.019531 998.117188 967.101562 999.78125 967.101562 1001.449219 Z M 967.101562 1001.449219 " fill-opacity="1" fill-rule="nonzero"/><path fill="#f8f8f8" d="M 967.101562 823.296875 C 967.101562 824.964844 967.019531 826.628906 966.855469 828.285156 C 966.691406 829.945312 966.445312 831.59375 966.121094 833.226562 C 965.796875 834.863281 965.390625 836.476562 964.910156 838.074219 C 964.425781 839.667969 963.863281 841.234375 963.226562 842.777344 C 962.585938 844.316406 961.875 845.820312 961.089844 847.292969 C 960.304688 848.761719 959.449219 850.191406 958.523438 851.574219 C 957.59375 852.960938 956.605469 854.300781 955.546875 855.589844 C 954.488281 856.875 953.371094 858.109375 952.191406 859.289062 C 951.011719 860.46875 949.777344 861.585938 948.492188 862.644531 C 947.203125 863.703125 945.863281 864.695312 944.476562 865.621094 C 943.09375 866.546875 941.664062 867.402344 940.195312 868.1875 C 938.722656 868.972656 937.21875 869.683594 935.679688 870.324219 C 934.136719 870.960938 932.570312 871.523438 930.976562 872.007812 C 929.378906 872.488281 927.765625 872.894531 926.128906 873.21875 C 924.496094 873.542969 922.847656 873.789062 921.1875 873.953125 C 919.53125 874.117188 917.867188 874.199219 916.199219 874.199219 C 914.53125 874.199219 912.871094 874.117188 911.210938 873.953125 C 909.550781 873.789062 907.90625 873.542969 906.269531 873.21875 C 904.636719 872.894531 903.019531 872.488281 901.425781 872.007812 C 899.828125 871.523438 898.261719 870.960938 896.722656 870.324219 C 895.179688 869.683594 893.675781 868.972656 892.207031 868.1875 C 890.734375 867.402344 889.308594 866.546875 887.921875 865.621094 C 886.535156 864.691406 885.199219 863.703125 883.910156 862.644531 C 882.621094 861.585938 881.386719 860.46875 880.207031 859.289062 C 879.03125 858.109375 877.910156 856.875 876.855469 855.589844 C 875.796875 854.300781 874.804688 852.960938 873.878906 851.574219 C 872.953125 850.191406 872.097656 848.761719 871.308594 847.292969 C 870.523438 845.820312 869.8125 844.316406 869.175781 842.777344 C 868.535156 841.234375 867.976562 839.667969 867.492188 838.074219 C 867.007812 836.476562 866.601562 834.863281 866.277344 833.226562 C 865.953125 831.59375 865.707031 829.945312 865.546875 828.285156 C 865.382812 826.628906 865.300781 824.964844 865.300781 823.296875 C 865.300781 821.628906 865.382812 819.96875 865.546875 818.308594 C 865.707031 816.648438 865.953125 815.003906 866.277344 813.367188 C 866.601562 811.734375 867.007812 810.117188 867.492188 808.523438 C 867.976562 806.925781 868.535156 805.359375 869.175781 803.820312 C 869.8125 802.277344 870.523438 800.773438 871.308594 799.304688 C 872.097656 797.832031 872.953125 796.40625 873.878906 795.019531 C 874.804688 793.632812 875.796875 792.296875 876.855469 791.007812 C 877.910156 789.71875 879.03125 788.484375 880.207031 787.304688 C 881.386719 786.128906 882.621094 785.007812 883.910156 783.953125 C 885.199219 782.894531 886.535156 781.902344 887.921875 780.976562 C 889.308594 780.050781 890.734375 779.195312 892.207031 778.40625 C 893.675781 777.621094 895.179688 776.910156 896.722656 776.273438 C 898.261719 775.632812 899.828125 775.074219 901.425781 774.589844 C 903.019531 774.105469 904.636719 773.699219 906.269531 773.375 C 907.90625 773.050781 909.550781 772.804688 911.210938 772.644531 C 912.871094 772.480469 914.53125 772.398438 916.199219 772.398438 C 917.867188 772.398438 919.53125 772.480469 921.1875 772.644531 C 922.847656 772.804688 924.496094 773.050781 926.128906 773.375 C 927.765625 773.699219 929.378906 774.105469 930.976562 774.589844 C 932.570312 775.074219 934.136719 775.632812 935.679688 776.273438 C 937.21875 776.910156 938.722656 777.621094 940.195312 778.40625 C 941.664062 779.195312 943.09375 780.050781 944.476562 780.976562 C 945.863281 781.902344 947.203125 782.894531 948.492188 783.953125 C 949.777344 785.007812 951.011719 786.128906 952.191406 787.304688 C 953.371094 788.484375 954.488281 789.71875 955.546875 791.007812 C 956.605469 792.296875 957.59375 793.632812 958.523438 795.019531 C 959.449219 796.40625 960.304688 797.832031 961.089844 799.304688 C 961.875 800.773438 962.585938 802.277344 963.226562 803.820312 C 963.863281 805.359375 964.425781 806.925781 964.910156 808.523438 C 965.390625 810.117188 965.796875 811.734375 966.121094 813.367188 C 966.445312 815.003906 966.691406 816.648438 966.855469 818.308594 C 967.019531 819.96875 967.101562 821.628906 967.101562 823.296875 Z M 967.101562 823.296875 " fill-opacity="1" fill-rule="nonzero"/><path fill="#f8f8f8" d="M 661.699219 823.296875 C 661.699219 824.964844 661.617188 826.628906 661.453125 828.285156 C 661.292969 829.945312 661.046875 831.59375 660.722656 833.226562 C 660.398438 834.863281 659.992188 836.476562 659.507812 838.074219 C 659.023438 839.667969 658.464844 841.234375 657.824219 842.777344 C 657.1875 844.316406 656.476562 845.820312 655.691406 847.292969 C 654.902344 848.761719 654.046875 850.191406 653.121094 851.574219 C 652.195312 852.960938 651.203125 854.300781 650.144531 855.589844 C 649.089844 856.875 647.96875 858.109375 646.792969 859.289062 C 645.613281 860.46875 644.378906 861.585938 643.089844 862.644531 C 641.800781 863.703125 640.464844 864.695312 639.078125 865.621094 C 637.691406 866.546875 636.265625 867.402344 634.792969 868.1875 C 633.324219 868.972656 631.820312 869.683594 630.277344 870.324219 C 628.738281 870.960938 627.171875 871.523438 625.574219 872.007812 C 623.980469 872.488281 622.363281 872.894531 620.730469 873.21875 C 619.09375 873.542969 617.449219 873.789062 615.789062 873.953125 C 614.128906 874.117188 612.46875 874.199219 610.800781 874.199219 C 609.132812 874.199219 607.46875 874.117188 605.8125 873.953125 C 604.152344 873.789062 602.503906 873.542969 600.871094 873.21875 C 599.234375 872.894531 597.621094 872.488281 596.023438 872.007812 C 594.429688 871.523438 592.863281 870.960938 591.320312 870.324219 C 589.78125 869.683594 588.277344 868.972656 586.804688 868.1875 C 585.335938 867.402344 583.90625 866.546875 582.519531 865.621094 C 581.136719 864.691406 579.796875 863.703125 578.507812 862.644531 C 577.222656 861.585938 575.988281 860.46875 574.808594 859.289062 C 573.628906 858.109375 572.511719 856.875 571.453125 855.589844 C 570.394531 854.300781 569.402344 852.960938 568.476562 851.574219 C 567.550781 850.191406 566.695312 848.761719 565.910156 847.292969 C 565.125 845.820312 564.414062 844.316406 563.773438 842.777344 C 563.136719 841.234375 562.574219 839.667969 562.089844 838.074219 C 561.609375 836.476562 561.203125 834.863281 560.878906 833.226562 C 560.554688 831.59375 560.308594 829.945312 560.144531 828.285156 C 559.980469 826.628906 559.898438 824.964844 559.898438 823.296875 C 559.898438 821.628906 559.980469 819.96875 560.144531 818.308594 C 560.308594 816.648438 560.554688 815.003906 560.878906 813.367188 C 561.203125 811.734375 561.609375 810.117188 562.089844 808.523438 C 562.574219 806.925781 563.136719 805.359375 563.773438 803.820312 C 564.414062 802.277344 565.125 800.773438 565.910156 799.304688 C 566.695312 797.832031 567.550781 796.40625 568.476562 795.019531 C 569.402344 793.632812 570.394531 792.296875 571.453125 791.007812 C 572.511719 789.71875 573.628906 788.484375 574.808594 787.304688 C 575.988281 786.128906 577.222656 785.007812 578.507812 783.953125 C 579.796875 782.894531 581.136719 781.902344 582.519531 780.976562 C 583.90625 780.050781 585.335938 779.195312 586.804688 778.40625 C 588.277344 777.621094 589.78125 776.910156 591.320312 776.273438 C 592.863281 775.632812 594.429688 775.074219 596.023438 774.589844 C 597.621094 774.105469 599.234375 773.699219 600.871094 773.375 C 602.503906 773.050781 604.152344 772.804688 605.8125 772.644531 C 607.46875 772.480469 609.132812 772.398438 610.800781 772.398438 C 612.46875 772.398438 614.128906 772.480469 615.789062 772.644531 C 617.449219 772.804688 619.09375 773.050781 620.730469 773.375 C 622.363281 773.699219 623.980469 774.105469 625.574219 774.589844 C 627.171875 775.074219 628.738281 775.632812 630.277344 776.273438 C 631.820312 776.910156 633.324219 777.621094 634.792969 778.40625 C 636.265625 779.195312 637.691406 780.050781 639.078125 780.976562 C 640.464844 781.902344 641.800781 782.894531 643.089844 783.953125 C 644.378906 785.007812 645.613281 786.128906 646.792969 787.304688 C 647.96875 788.484375 649.089844 789.71875 650.144531 791.007812 C 651.203125 792.296875 652.195312 793.632812 653.121094 795.019531 C 654.046875 796.40625 654.902344 797.832031 655.691406 799.304688 C 656.476562 800.773438 657.1875 802.277344 657.824219 803.820312 C 658.464844 805.359375 659.023438 806.925781 659.507812 808.523438 C 659.992188 810.117188 660.398438 811.734375 660.722656 813.367188 C 661.046875 815.003906 661.292969 816.648438 661.453125 818.308594 C 661.617188 819.96875 661.699219 821.628906 661.699219 823.296875 Z M 661.699219 823.296875 " fill-opacity="1" fill-rule="nonzero"/></svg>